<svg width="20" height="20" viewBox="0 0 20 20" fill="none" xmlns="http://www.w3.org/2000/svg">
<g id="arrowUp">
<path id="Vector" d="M16.2883 9.41319C16.2012 9.50059 16.0977 9.56994 15.9837 9.61726C15.8698 9.66457 15.7476 9.68893 15.6242 9.68893C15.5008 9.68893 15.3787 9.66457 15.2647 9.61726C15.1507 9.56994 15.0472 9.50059 14.9602 9.41319L10.9375 5.39053V16.8749C10.9375 17.1235 10.8387 17.362 10.6629 17.5378C10.4871 17.7136 10.2486 17.8124 10 17.8124C9.75136 17.8124 9.5129 17.7136 9.33708 17.5378C9.16127 17.362 9.0625 17.1235 9.0625 16.8749V5.39053L5.03828 9.41319C4.86216 9.58931 4.62329 9.68825 4.37422 9.68825C4.12514 9.68825 3.88627 9.58931 3.71015 9.41319C3.53403 9.23707 3.43509 8.9982 3.43509 8.74913C3.43509 8.50006 3.53403 8.26119 3.71015 8.08507L9.33515 2.46007C9.42225 2.37267 9.52574 2.30332 9.6397 2.256C9.75365 2.20868 9.87583 2.18433 9.99922 2.18433C10.1226 2.18433 10.2448 2.20868 10.3587 2.256C10.4727 2.30332 10.5762 2.37267 10.6633 2.46007L16.2883 8.08507C16.3757 8.17216 16.445 8.27566 16.4923 8.38961C16.5397 8.50357 16.564 8.62574 16.564 8.74913C16.564 8.87252 16.5397 8.99469 16.4923 9.10865C16.445 9.2226 16.3757 9.32609 16.2883 9.41319Z" fill="white"/>
</g>
</svg>
