<svg width="17" height="16" viewBox="0 0 17 16" fill="none" xmlns="http://www.w3.org/2000/svg">
<g id="heart">
<path id="Vector" d="M15.5 5.875C15.5 10.25 9.01312 13.7913 8.73687 13.9375C8.66406 13.9767 8.58268 13.9972 8.5 13.9972C8.41732 13.9972 8.33594 13.9767 8.26312 13.9375C7.98688 13.7913 1.5 10.25 1.5 5.875C1.50116 4.84764 1.90979 3.86269 2.63624 3.13624C3.36269 2.40979 4.34764 2.00116 5.375 2C6.66563 2 7.79562 2.555 8.5 3.49312C9.20438 2.555 10.3344 2 11.625 2C12.6524 2.00116 13.6373 2.40979 14.3638 3.13624C15.0902 3.86269 15.4988 4.84764 15.5 5.875Z" fill="#FF2C20"/>
</g>
</svg>
