<svg width="32" height="32" viewBox="0 0 32 32" fill="none" xmlns="http://www.w3.org/2000/svg">
<path d="M19.0338 4.74126C19.0677 4.61435 19.1263 4.49537 19.2063 4.39112C19.2862 4.28687 19.3859 4.1994 19.4997 4.13369C19.6134 4.06799 19.739 4.02535 19.8693 4.0082C19.9995 3.99105 20.1319 3.99974 20.2588 4.03376C22.1126 4.51744 23.804 5.48656 25.1587 6.8413C26.5135 8.19604 27.4826 9.88743 27.9663 11.7413C28.0003 11.8681 28.009 12.0005 27.9918 12.1307C27.9747 12.261 27.932 12.3866 27.8663 12.5003C27.8006 12.6141 27.7131 12.7138 27.6089 12.7938C27.5047 12.8737 27.3857 12.9323 27.2588 12.9663C27.1743 12.9884 27.0873 12.9998 27 13C26.7798 13.0001 26.5657 12.9275 26.391 12.7934C26.2163 12.6594 26.0907 12.4715 26.0338 12.2588C25.6395 10.7452 24.8486 9.36415 23.7428 8.25806C22.6369 7.15197 21.256 6.36085 19.7425 5.96626C19.6155 5.93245 19.4964 5.87392 19.392 5.79404C19.2876 5.71415 19.2 5.61447 19.1342 5.5007C19.0683 5.38692 19.0256 5.26128 19.0084 5.13097C18.9911 5.00066 18.9998 4.86823 19.0338 4.74126ZM18.7425 9.96626C20.4663 10.4263 21.5738 11.535 22.0338 13.2588C22.0907 13.4715 22.2163 13.6594 22.391 13.7934C22.5657 13.9275 22.7798 14.0001 23 14C23.0873 13.9998 23.1743 13.9884 23.2588 13.9663C23.3857 13.9323 23.5047 13.8737 23.6089 13.7938C23.7131 13.7138 23.8006 13.6141 23.8663 13.5003C23.932 13.3866 23.9747 13.261 23.9918 13.1307C24.009 13.0005 24.0003 12.8681 23.9663 12.7413C23.3263 10.3463 21.6538 8.67376 19.2588 8.03376C19.1319 7.99986 18.9995 7.99129 18.8693 8.00853C18.7391 8.02577 18.6136 8.06849 18.4999 8.13424C18.3862 8.2 18.2866 8.2875 18.2067 8.39176C18.1268 8.49602 18.0683 8.61499 18.0344 8.74188C18.0005 8.86877 17.9919 9.00109 18.0092 9.1313C18.0264 9.2615 18.0691 9.38703 18.1349 9.50073C18.2006 9.61442 18.2881 9.71405 18.3924 9.79392C18.4967 9.8738 18.6156 9.93236 18.7425 9.96626ZM27.7963 19.8075L21.9075 17.1688L21.8913 17.1613C21.5856 17.0305 21.2521 16.978 20.921 17.0086C20.5899 17.0391 20.2716 17.1518 19.995 17.3363C19.9624 17.3578 19.9311 17.3811 19.9013 17.4063L16.8588 20C14.9313 19.0638 12.9413 17.0888 12.005 15.1863L14.6025 12.0975C14.6275 12.0663 14.6513 12.035 14.6738 12.0013C14.8543 11.7254 14.9638 11.4092 14.9926 11.0807C15.0214 10.7523 14.9686 10.4218 14.8388 10.1188V10.1038L12.1925 4.20501C12.0209 3.80909 11.7259 3.47928 11.3515 3.2648C10.9771 3.05033 10.5433 2.96271 10.115 3.01501C8.42122 3.23789 6.86649 4.06972 5.74118 5.35513C4.61587 6.64053 3.99695 8.29162 4.00001 10C4.00001 19.925 12.075 28 22 28C23.7084 28.0031 25.3595 27.3841 26.6449 26.2588C27.9303 25.1335 28.7621 23.5788 28.985 21.885C29.0374 21.4568 28.95 21.0232 28.7357 20.6488C28.5215 20.2744 28.1919 19.9793 27.7963 19.8075Z" fill="black"/>
</svg>
