<svg width="32" height="32" viewBox="0 0 32 32" fill="none" xmlns="http://www.w3.org/2000/svg">
<path d="M26.0613 23.9387C26.343 24.2205 26.5014 24.6027 26.5014 25.0012C26.5014 25.3998 26.343 25.782 26.0613 26.0637C25.7795 26.3455 25.3973 26.5039 24.9988 26.5039C24.6002 26.5039 24.218 26.3455 23.9363 26.0637L16 18.125L8.06126 26.0613C7.77946 26.343 7.39727 26.5014 6.99876 26.5014C6.60024 26.5014 6.21805 26.343 5.93626 26.0613C5.65446 25.7795 5.49615 25.3973 5.49615 24.9988C5.49615 24.6002 5.65446 24.218 5.93626 23.9363L13.875 16L5.93876 8.06125C5.65696 7.77946 5.49865 7.39726 5.49865 6.99875C5.49865 6.60023 5.65696 6.21804 5.93876 5.93625C6.22055 5.65446 6.60274 5.49615 7.00126 5.49615C7.39977 5.49615 7.78196 5.65446 8.06376 5.93625L16 13.875L23.9388 5.935C24.2205 5.65321 24.6027 5.4949 25.0013 5.4949C25.3998 5.4949 25.782 5.65321 26.0638 5.935C26.3455 6.21679 26.5039 6.59898 26.5039 6.9975C26.5039 7.39601 26.3455 7.77821 26.0638 8.06L18.125 16L26.0613 23.9387Z" fill="black"/>
</svg>
